<?xml version="1.0" encoding="UTF-8" standalone="no"?>
<svg
   xmlns:dc="http://purl.org/dc/elements/1.1/"
   xmlns:cc="http://creativecommons.org/ns#"
   xmlns:rdf="http://www.w3.org/1999/02/22-rdf-syntax-ns#"
   xmlns:svg="http://www.w3.org/2000/svg"
   xmlns="http://www.w3.org/2000/svg"
   xmlns:sodipodi="http://sodipodi.sourceforge.net/DTD/sodipodi-0.dtd"
   xmlns:inkscape="http://www.inkscape.org/namespaces/inkscape"
   version="1.1"
   id="Layer_1"
   x="0px"
   y="0px"
   viewBox="0 0 299.997 299.997"
   style="enable-background:new 0 0 299.997 299.997;"
   xml:space="preserve"
   width="512px"
   height="512px"
   class=""
   sodipodi:docname="user.svg"
   inkscape:version="0.92.4 (5da689c313, 2019-01-14)"><metadata
   id="metadata3771"><rdf:RDF><cc:Work
       rdf:about=""><dc:format>image/svg+xml</dc:format><dc:type
         rdf:resource="http://purl.org/dc/dcmitype/StillImage" /></cc:Work></rdf:RDF></metadata><defs
   id="defs3769" /><sodipodi:namedview
   pagecolor="#ffffff"
   bordercolor="#666666"
   borderopacity="1"
   objecttolerance="10"
   gridtolerance="10"
   guidetolerance="10"
   inkscape:pageopacity="0"
   inkscape:pageshadow="2"
   inkscape:window-width="1280"
   inkscape:window-height="961"
   id="namedview3767"
   showgrid="false"
   inkscape:zoom="1.4882812"
   inkscape:cx="256"
   inkscape:cy="256"
   inkscape:window-x="-8"
   inkscape:window-y="-8"
   inkscape:window-maximized="1"
   inkscape:current-layer="Layer_1" /><g
   id="g3764"><g
     id="g3762">
	<g
   id="g3760">
		<path
   d="M149.996,0C67.157,0,0.001,67.158,0.001,149.997c0,82.837,67.156,150,149.995,150s150-67.163,150-150    C299.996,67.156,232.835,0,149.996,0z M150.453,220.763v-0.002h-0.916H85.465c0-46.856,41.152-46.845,50.284-59.097l1.045-5.587    c-12.83-6.502-21.887-22.178-21.887-40.512c0-24.154,15.712-43.738,35.089-43.738c19.377,0,35.089,19.584,35.089,43.738    c0,18.178-8.896,33.756-21.555,40.361l1.19,6.349c10.019,11.658,49.802,12.418,49.802,58.488H150.453z"
   data-original="#FFFFFF"
   class="active-path"
   data-old_color="#000000"
   fill="#12B759"
   id="path3758" />
	</g>
</g></g> <path
   style="fill:#ffffff;stroke-width:0.67191601"
   d="m 146.47769,370.89721 c 0,-11.59458 3.80813,-27.17018 9.13381,-37.3581 3.54356,-6.77876 10.67758,-15.79024 16.31425,-20.60767 8.28463,-7.08051 15.39053,-11.39872 33.62112,-20.4313 22.65546,-11.22495 26.30288,-13.9956 27.24724,-20.69758 0.24051,-1.70684 0.58076,-3.59827 0.75613,-4.20317 0.22878,-0.78919 -1.27786,-2.16223 -5.3343,-4.86129 -34.42263,-22.90402 -42.38023,-80.28717 -16.04653,-115.71323 8.70969,-11.71691 20.42628,-19.92136 32.52114,-22.77267 6.14455,-1.44855 17.32939,-1.3185 23.55558,0.27389 18.456,4.72025 34.58786,21.03185 42.11794,42.58721 6.47641,18.53917 6.75364,40.39041 0.739,58.24733 -5.87228,17.43429 -16.80392,31.4262 -31.24185,39.98791 -1.08194,0.64159 -1.07999,1.02382 0.0338,6.6321 l 1.18191,5.95126 4.09145,3.04576 c 2.25031,1.67519 10.28989,6.06866 17.86574,9.76328 17.25585,8.41541 24.0672,12.23346 31.01666,17.38618 14.0271,10.40045 23.14843,23.32975 27.84818,39.47422 2.12993,7.31664 3.61431,17.05001 3.61939,23.73304 l 0.004,5.20735 H 256 146.47769 Z"
   id="path3777"
   inkscape:connector-curvature="0"
   transform="scale(0.58593164)" /></svg>